<svg width="60" height="60" viewBox="0 0 60 60" fill="none" xmlns="http://www.w3.org/2000/svg">
<path d="M40 40C45.5228 40 50 35.5228 50 30C50 24.4772 45.5228 20 40 20C34.4772 20 30 24.4772 30 30C30 35.5228 34.4772 40 40 40Z" fill="#19BCFE"/>
<path fill-rule="evenodd" clip-rule="evenodd" d="M20 60C22.6522 60 25.1957 58.9464 27.0711 57.0711C28.9464 55.1957 30 52.6522 30 50V40H20C17.3478 40 14.8043 41.0536 12.9289 42.9289C11.0536 44.8043 10 47.3478 10 50C10 52.6522 11.0536 55.1957 12.9289 57.0711C14.8043 58.9464 17.3478 60 20 60V60Z" fill="#09CF83"/>
<path fill-rule="evenodd" clip-rule="evenodd" d="M20 40H30V20H20C17.3478 20 14.8043 21.0536 12.9289 22.9289C11.0536 24.8043 10 27.3478 10 30C10 32.6522 11.0536 35.1957 12.9289 37.0711C14.8043 38.9464 17.3478 40 20 40V40Z" fill="#A259FF"/>
<path fill-rule="evenodd" clip-rule="evenodd" d="M20 20H30V0H20C17.3478 0 14.8043 1.05357 12.9289 2.92893C11.0536 4.8043 10 7.34784 10 10C10 12.6522 11.0536 15.1957 12.9289 17.0711C14.8043 18.9464 17.3478 20 20 20V20Z" fill="#F24E1E"/>
<path fill-rule="evenodd" clip-rule="evenodd" d="M40 20H30V0H40C42.6522 0 45.1957 1.05357 47.0711 2.92893C48.9464 4.8043 50 7.34784 50 10C50 12.6522 48.9464 15.1957 47.0711 17.0711C45.1957 18.9464 42.6522 20 40 20Z" fill="#FF7262"/>
</svg>
