<svg width="60" height="60" viewBox="0 0 60 60" fill="none" xmlns="http://www.w3.org/2000/svg">
<path d="M56.6995 3.30047C54.4982 1.09915 51.8494 0 48.7502 0H11.2498C8.15056 0 5.50178 1.09915 3.30047 3.30047C1.09915 5.50178 0 8.15056 0 11.2498V48.7502C0 51.8494 1.09915 54.4982 3.30047 56.6995C5.50178 58.9008 8.15056 60 11.2498 60H20.001C20.5716 60 21.0011 59.979 21.2894 59.9399C21.6248 59.8727 21.9275 59.6938 22.1483 59.4324C22.4336 59.1321 22.5777 58.6966 22.5777 58.126L22.5567 55.4682C22.5447 53.7745 22.5387 52.4351 22.5387 51.444L21.6377 51.6002C21.0671 51.7053 20.3464 51.7503 19.4724 51.7383C18.5616 51.7215 17.6536 51.6301 16.7576 51.465C15.8038 51.2889 14.9059 50.8874 14.1388 50.2938C13.3355 49.6861 12.7363 48.848 12.421 47.8913L12.0306 46.9903C11.7016 46.2796 11.2882 45.6111 10.7993 44.9992C10.2408 44.2695 9.67316 43.777 9.09956 43.5157L8.82927 43.3205C8.6408 43.1855 8.46938 43.0282 8.31874 42.852C8.17486 42.6885 8.05641 42.5042 7.96737 42.3054C7.88928 42.1222 7.95535 41.9721 8.16257 41.8549C8.37279 41.7348 8.74819 41.6778 9.29776 41.6778L10.0786 41.7979C10.5981 41.9 11.2438 42.2123 12.0096 42.7319C12.7846 43.2602 13.432 43.9548 13.9046 44.765C14.5052 45.8311 15.226 46.645 16.0729 47.2066C16.9198 47.7652 17.7727 48.0475 18.6316 48.0475C19.4905 48.0475 20.2322 47.9814 20.8599 47.8522C21.4669 47.7267 22.0567 47.5291 22.6167 47.2636C22.851 45.5218 23.4877 44.1764 24.5298 43.2394C23.1795 43.107 21.8412 42.8721 20.5266 42.5367C19.2436 42.1842 18.0097 41.6727 16.8537 41.0141C15.6442 40.3556 14.5758 39.4658 13.7094 38.3953C12.8775 37.3532 12.1928 35.9868 11.6582 34.296C11.1267 32.6022 10.8594 30.6472 10.8594 28.4339C10.8594 25.2835 11.8865 22.6017 13.9436 20.3854C12.9826 18.0189 13.0727 15.3611 14.2169 12.421C14.9737 12.1838 16.0939 12.361 17.5775 12.9466C19.061 13.5322 20.1482 14.0337 20.8389 14.4482C21.5296 14.8686 22.0822 15.22 22.4996 15.5053C24.9411 14.8258 27.4642 14.4843 29.9985 14.4902C32.5782 14.4902 35.0768 14.8296 37.5004 15.5053L38.9839 14.5683C40.1251 13.8831 41.3287 13.3079 42.5787 12.8505C43.9602 12.3279 45.0113 12.1868 45.744 12.421C46.9153 15.3641 47.0174 18.0189 46.0534 20.3884C48.1105 22.6017 49.1406 25.2835 49.1406 28.4369C49.1406 30.6502 48.8733 32.6112 48.3388 34.314C47.8072 36.0198 47.1165 37.3863 46.2696 38.4163C45.3879 39.4731 44.3151 40.3544 43.1073 41.0141C41.8459 41.7168 40.6207 42.2243 39.4344 42.5367C38.1199 42.8732 36.7816 43.1091 35.4312 43.2424C36.7826 44.4136 37.4613 46.2606 37.4613 48.7862V58.126C37.4613 58.5675 37.5244 58.9249 37.6565 59.1982C37.7173 59.3298 37.8039 59.4479 37.9112 59.5454C38.0185 59.6429 38.1443 59.7179 38.2812 59.7658C38.5695 59.8679 38.8218 59.9339 39.044 59.958C39.2662 59.988 39.5846 59.997 39.999 59.997H48.7502C51.8494 59.997 54.4982 58.8978 56.6995 56.6965C58.8978 54.4982 60 51.8464 60 48.7472V11.2498C60 8.15056 58.8978 5.50178 56.6965 3.30047H56.6995Z" fill="#4B53FF"/>
</svg>
