<svg width="60" height="59" viewBox="0 0 60 59" fill="none" xmlns="http://www.w3.org/2000/svg">
<rect width="60" height="59" rx="10" fill="#4B53FF"/>
<path d="M46.825 13.2996L43.625 15.7579L30 25.7142L16.375 15.6596L13.175 13.2013C12.4211 12.588 11.5009 12.2058 10.5282 12.1018C9.55557 11.9978 8.57327 12.1768 7.70302 12.6164C6.83277 13.0561 6.11282 13.7371 5.63235 14.5752C5.15188 15.4133 4.93202 16.3715 5 17.3313V45.8234C5 46.7101 5.35821 47.5605 5.99584 48.1875C6.63346 48.8144 7.49826 49.1667 8.4 49.1667H16.375V30.1884L30 40.2429L43.625 30.1884V49.1667H51.6C52.5017 49.1667 53.3665 48.8144 54.0042 48.1875C54.6418 47.5605 55 46.7101 55 45.8234V17.3313C55.0469 16.3798 54.8118 15.4354 54.3231 14.6129C53.8345 13.7904 53.1133 13.1252 52.2474 12.6981C51.3815 12.2711 50.408 12.1006 49.4454 12.2074C48.4828 12.3141 47.5724 12.6936 46.825 13.2996Z" fill="#090B2A"/>
</svg>
