<svg width="60" height="54" viewBox="0 0 60 54" fill="none" xmlns="http://www.w3.org/2000/svg">
<g clip-path="url(#clip0_44_33)">
<path d="M49.332 17.3025C48.6934 17.0834 48.0495 16.8805 47.4007 16.6938C47.5097 16.2485 47.61 15.8086 47.6991 15.3764C49.1611 8.27929 48.2053 2.56171 44.9407 0.679209C41.8106 -1.12548 36.6916 0.756318 31.5218 5.25562C31.0123 5.69983 30.5141 6.15686 30.0277 6.62624C29.702 6.31411 29.3706 6.00805 29.0337 5.70819C23.6154 0.897412 18.1845 -1.13017 14.9234 0.757724C11.7961 2.56804 10.8701 7.94296 12.1863 14.6691C12.3173 15.3352 12.4651 15.9979 12.6298 16.6566C11.861 16.875 11.1192 17.1075 10.4093 17.355C4.0568 19.5698 0 23.0407 0 26.6409C0 30.3593 4.35516 34.0889 10.9716 36.3504C11.508 36.533 12.0488 36.7022 12.5937 36.8578C12.4167 37.5672 12.2596 38.2814 12.1226 38.9995C10.8677 45.6089 11.8477 50.8568 14.9665 52.6556C18.1877 54.5133 23.5943 52.6041 28.8586 48.0021C29.2855 47.628 29.7029 47.2432 30.1106 46.8483C30.6374 47.3565 31.1782 47.85 31.7325 48.3281C36.832 52.7161 41.8683 54.488 44.9841 52.6842C48.2023 50.8212 49.2483 45.1835 47.8903 38.3245C47.7833 37.7872 47.6634 37.2525 47.5305 36.7209C47.9102 36.6084 48.2829 36.4927 48.6462 36.3722C55.5246 34.0934 60 30.409 60 26.6409C60 23.0276 55.8122 19.5333 49.332 17.3025V17.3025ZM47.8402 33.9394C47.512 34.0479 47.1755 34.1527 46.8323 34.2546C46.073 31.8506 45.0483 29.2945 43.7941 26.6534C44.9909 24.0752 45.9762 21.5517 46.7142 19.1634C47.328 19.3411 47.9236 19.5284 48.4978 19.7259C54.0502 21.6375 57.4369 24.4634 57.4369 26.6409C57.4369 28.9603 53.7792 31.9713 47.8402 33.9394V33.9394ZM45.3759 38.8223C45.9764 41.8552 46.062 44.5973 45.6642 46.7412C45.307 48.6675 44.5884 49.9516 43.6997 50.4661C41.809 51.5606 37.7653 50.138 33.4043 46.3852C32.8888 45.9406 32.3857 45.4819 31.8956 45.0094C33.5864 43.1604 35.276 41.0109 36.9251 38.6236C39.8257 38.3662 42.566 37.9453 45.0511 37.3709C45.1734 37.8647 45.2822 38.3489 45.3759 38.8223V38.8223ZM20.4553 50.277C18.608 50.9292 17.1366 50.948 16.2471 50.4352C14.3545 49.3437 13.5677 45.1298 14.6409 39.4777C14.7685 38.8097 14.9146 38.1455 15.079 37.4857C17.5366 38.0294 20.257 38.4204 23.1645 38.6562C24.8248 40.9922 26.5631 43.1393 28.3151 45.0194C27.9428 45.3797 27.5616 45.7308 27.172 46.0723C24.844 48.1071 22.5113 49.5509 20.4553 50.277V50.277ZM11.8008 33.9251C8.87508 32.925 6.45891 31.6254 4.80281 30.2072C3.31453 28.9329 2.56336 27.6675 2.56336 26.6409C2.56336 24.4561 5.82047 21.6694 11.253 19.7754C11.9123 19.5457 12.6023 19.3289 13.3184 19.1255C14.0693 21.5676 15.0541 24.1212 16.2427 26.7033C15.0387 29.3236 14.0398 31.9179 13.2816 34.3889C12.7842 34.2464 12.2905 34.0918 11.8008 33.9251V33.9251ZM14.7019 14.1766C13.5743 8.41405 14.3231 4.0671 16.2077 2.97608C18.2149 1.81405 22.6535 3.47085 27.3319 7.62491C27.6369 7.89641 27.9371 8.17341 28.2321 8.45577C26.4888 10.3277 24.7664 12.4589 23.1209 14.7811C20.299 15.0426 17.5978 15.4626 15.1144 16.0254C14.9614 15.4128 14.8238 14.7964 14.7019 14.1769V14.1766ZM40.5832 20.5676C39.9966 19.5543 39.3883 18.5539 38.7586 17.5669C40.673 17.809 42.5072 18.1303 44.2296 18.5231C43.7126 20.1806 43.068 21.9134 42.3094 23.6899C41.7548 22.6377 41.1793 21.5968 40.5832 20.5676V20.5676ZM30.0288 10.2876C31.211 11.5685 32.3951 12.9984 33.5597 14.55C31.1972 14.4384 28.8307 14.4379 26.4682 14.5486C27.634 13.0113 28.8281 11.5833 30.0288 10.2876ZM19.4067 20.5851C18.818 21.606 18.2533 22.6406 17.7129 23.6878C16.9666 21.9176 16.328 20.1769 15.8065 18.4959C17.5184 18.113 19.3439 17.7998 21.2461 17.5622C20.6094 18.5552 19.9961 19.5631 19.4067 20.5849V20.5851ZM21.3007 35.902C19.3355 35.6827 17.4825 35.3857 15.7711 35.013C16.3008 33.3021 16.9535 31.5244 17.7159 29.7162C18.2585 30.7642 18.8256 31.7993 19.4168 32.8207C20.0248 33.8707 20.6543 34.8991 21.3007 35.902ZM30.0996 43.1747C28.8846 41.8641 27.6729 40.414 26.4895 38.8545C27.6384 38.8995 28.8096 38.9224 30 38.9224C31.223 38.9224 32.4319 38.895 33.6218 38.842C32.4534 40.4297 31.2738 41.8819 30.0996 43.1747ZM42.3335 29.6238C43.1355 31.4519 43.8115 33.2203 44.3482 34.9019C42.6087 35.299 40.7304 35.6187 38.7513 35.8561C39.3855 34.8507 39.9996 33.8329 40.5933 32.8031C41.1969 31.7564 41.7771 30.6964 42.3335 29.6238V29.6238ZM38.373 31.5225C37.4642 33.1013 36.5042 34.6502 35.4947 36.1666C33.666 36.2962 31.8333 36.3605 30 36.3595C28.1327 36.3595 26.3166 36.3014 24.5677 36.188C23.5318 34.675 22.5535 33.1235 21.6349 31.5366H21.6352C20.7209 29.9581 19.8669 28.3454 19.0751 26.7021C19.8649 25.0584 20.7163 23.445 21.6274 21.8653L21.6272 21.8655C22.538 20.2854 23.5084 18.7405 24.5365 17.2341C26.3208 17.0991 28.1505 17.0287 29.9998 17.0287H30C31.8577 17.0287 33.6898 17.0998 35.4736 17.2357C36.4913 18.7399 37.4555 20.2795 38.3646 21.8517C39.2788 23.4279 40.1414 25.0335 40.9512 26.6658C40.1497 28.3148 39.2898 29.9347 38.373 31.5225V31.5225ZM43.6605 2.89968C45.6696 4.05843 46.451 8.73116 45.1887 14.8589C45.108 15.2498 45.0176 15.648 44.9191 16.0519C42.4296 15.4772 39.7266 15.0499 36.8965 14.7844C35.2479 12.4366 33.5395 10.3022 31.8246 8.45437C32.2741 8.02113 32.7342 7.59912 33.2046 7.18874C37.6343 3.33397 41.7743 1.81194 43.6605 2.89968V2.89968ZM30 21.2831C32.959 21.2831 35.3578 23.6819 35.3578 26.6409C35.3578 29.5999 32.959 31.9987 30 31.9987C27.041 31.9987 24.6422 29.5999 24.6422 26.6409C24.6422 23.6819 27.041 21.2831 30 21.2831V21.2831Z" fill="#00D8FF"/>
</g>
<defs>
<clipPath id="clip0_44_33">
<rect width="60" height="53.4375" fill="white"/>
</clipPath>
</defs>
</svg>
