<svg width="60" height="60" viewBox="0 0 60 60" fill="none" xmlns="http://www.w3.org/2000/svg">
<rect width="60" height="60" rx="30" fill="white"/>
<path d="M47.3737 28.6988C47.3737 25.5188 46.2299 23.3175 45.2512 21.6038L44.9512 21.1163C43.7624 19.2038 42.7237 17.5238 42.7237 15.5663C42.7237 13.2038 44.5162 10.9988 47.0437 10.9988C47.1187 10.9988 47.1899 11.0063 47.2612 11.01L47.3774 11.0213C42.6381 6.66803 36.4352 4.25593 29.9999 4.26375C25.7349 4.26156 21.5364 5.32058 17.7827 7.34539C14.029 9.3702 10.8381 12.2972 8.49744 15.8625C9.09744 15.8813 9.67119 15.8963 10.1549 15.8963C12.8437 15.8963 17.0099 15.57 17.0099 15.57C18.3974 15.4875 18.5624 17.5238 17.1749 17.6888C17.1749 17.6888 15.7837 17.8538 14.2312 17.9325L23.6062 45.81L29.2312 28.9125L25.2187 17.9288C23.8349 17.8463 22.5224 17.685 22.5224 17.685C21.1349 17.6025 21.2999 15.48 22.6837 15.5625C22.6837 15.5625 26.9362 15.8888 29.4637 15.8888C32.1562 15.8888 36.3262 15.5625 36.3262 15.5625C37.7137 15.48 37.8749 17.52 36.4874 17.685C36.4874 17.685 35.0924 17.8463 33.5437 17.9288L42.8437 45.5925L45.4087 37.0163L45.6112 36.3675C46.6237 33.1425 47.3699 30.7613 47.3699 28.695L47.3737 28.6988ZM4.26369 30C4.26344 34.8328 5.62374 39.568 8.18893 43.6639C10.7541 47.7597 14.4206 51.0506 18.7687 53.16L6.48744 19.5225C5.01681 22.8195 4.25902 26.3899 4.26369 30V30Z" fill="#21759B"/>
<path d="M22.7288 54.6862L30.4538 32.25L38.3625 53.925C38.415 54.0487 38.475 54.165 38.5463 54.2775C33.4479 56.0736 27.9131 56.2167 22.7288 54.6862V54.6862ZM52.5788 17.6512C52.6913 18.4725 52.755 19.35 52.755 20.2987C52.755 22.9087 52.2675 25.845 50.7975 29.5162L42.9375 52.2412C48.7377 48.8713 52.9921 43.3691 54.7938 36.9075C56.5955 30.446 55.8021 23.5362 52.5825 17.6512H52.5788Z" fill="#21759B"/>
<path fill-rule="evenodd" clip-rule="evenodd" d="M0 30C0 13.4588 13.4588 0 30 0C46.5375 0 60 13.4588 60 30C60 46.5412 46.5375 60 30 60C13.4588 60 0 46.5412 0 30ZM1.37625 30C1.37625 45.7838 14.2162 58.6238 30 58.6238C45.78 58.6238 58.62 45.7838 58.62 30C58.62 14.2125 45.78 1.37625 30 1.37625C14.2125 1.37625 1.37625 14.2125 1.37625 30Z" fill="#21759B"/>
</svg>
